<svg version="1.1" id="Layer_1" xmlns="http://www.w3.org/2000/svg" xmlns:xlink="http://www.w3.org/1999/xlink" x="0px" y="0px"
	 width="100%" viewBox="0 0 417 574" enable-background="new 0 0 417 574" xml:space="preserve">
<path fill="#344A24" opacity="1.000000" stroke="none" 
	d="
M418.000000,178.000000 
	C418.000000,310.666626 418.000000,442.833252 418.000000,574.999878 
	C279.000061,574.999939 140.000122,574.999939 1.000097,575.000000 
	C1.000000,479.333435 1.000000,383.666840 1.000000,288.000275 
	C1.000000,192.333633 1.000000,96.666977 1.000000,1.000248 
	C139.999863,1.000165 278.999725,1.000165 417.999786,1.000083 
	C418.000000,59.833332 418.000000,118.666664 418.000000,178.000000 
M15.162341,346.499542 
	C15.162436,351.832855 14.939878,357.180115 15.273087,362.492523 
	C15.404893,364.593903 16.254866,367.100189 17.655853,368.604370 
	C38.316135,390.786469 59.125275,412.829926 79.897415,434.907867 
	C113.684166,470.818512 147.463379,506.736298 181.259918,542.637756 
	C190.488419,552.441040 199.767365,562.196838 209.529816,572.509644 
	C210.061050,571.622375 210.311890,570.981445 210.746399,570.509705 
	C233.314362,546.006775 255.884186,521.505554 278.482727,497.030853 
	C317.581238,454.686462 356.685242,412.347168 395.840668,370.055450 
	C398.218781,367.486847 399.396027,364.935852 399.392517,361.265289 
	C399.281830,245.604828 399.300751,129.944244 399.299957,14.283681 
	C399.299957,12.534128 399.299957,10.784576 399.299957,8.027614 
	C319.021484,8.366286 251.779541,33.037113 206.227066,102.080902 
	C158.780060,37.988914 95.911797,6.219074 15.162296,10.401659 
	C15.162296,122.866577 15.162296,234.183136 15.162341,346.499542 
z"/>
<path fill="#FDFDFD" opacity="1.000000" stroke="none" 
	d="
M15.162319,345.999634 
	C15.162296,234.183136 15.162296,122.866577 15.162296,10.401659 
	C95.911797,6.219074 158.780060,37.988914 206.227066,102.080902 
	C251.779541,33.037113 319.021484,8.366286 399.299957,8.027614 
	C399.299957,10.784576 399.299957,12.534128 399.299957,14.283681 
	C399.300751,129.944244 399.281830,245.604828 399.392517,361.265289 
	C399.396027,364.935852 398.218781,367.486847 395.840668,370.055450 
	C356.685242,412.347168 317.581238,454.686462 278.482727,497.030853 
	C255.884186,521.505554 233.314362,546.006775 210.746399,570.509705 
	C210.311890,570.981445 210.061050,571.622375 209.529816,572.509644 
	C199.767365,562.196838 190.488419,552.441040 181.259918,542.637756 
	C147.463379,506.736298 113.684166,470.818512 79.897415,434.907867 
	C59.125275,412.829926 38.316135,390.786469 17.655853,368.604370 
	C16.254866,367.100189 15.404893,364.593903 15.273087,362.492523 
	C14.939878,357.180115 15.162436,351.832855 15.162319,345.999634 
M171.255814,401.246277 
	C179.495361,408.640442 187.734894,416.034607 195.974426,423.428772 
	C195.161133,423.287445 195.163040,421.705597 195.160843,420.123779 
	C195.129486,397.634705 195.092133,375.145599 195.066879,352.656525 
	C194.984940,279.690308 194.919113,206.724075 194.772568,133.757996 
	C194.768082,131.521072 194.513550,128.945023 193.414413,127.099510 
	C165.309555,79.909950 126.414742,47.055443 71.196182,36.649609 
	C60.549477,34.643261 49.514900,34.695148 38.523411,33.786324 
	C38.523411,139.722076 38.523411,244.245148 38.523411,348.620270 
	C87.939041,353.141144 132.569992,368.761139 171.255814,401.246277 
M218.509308,298.499634 
	C218.509308,341.050751 218.509308,383.601868 218.509308,427.209656 
	C237.878220,402.776733 261.467072,385.100281 288.772186,372.274780 
	C316.094604,359.441162 344.861084,352.012177 374.791016,349.787628 
	C374.791016,244.877609 374.791016,140.359543 374.791016,35.693230 
	C360.209198,35.017822 346.130615,36.008602 332.344635,39.602112 
	C282.322632,52.641041 246.483505,83.847099 220.494888,127.478851 
	C219.308701,129.470291 218.912582,132.198380 218.903992,134.586090 
	C218.708679,188.890350 218.618851,243.195023 218.509308,298.499634 
M76.777603,377.692200 
	C68.322350,376.195190 59.867088,374.698212 51.411835,373.201202 
	C51.284504,373.721802 51.157173,374.242371 51.029846,374.762970 
	C92.999252,419.745911 134.968658,464.728851 176.827438,509.593231 
	C198.654099,497.061859 219.971039,495.031769 241.279907,509.357452 
	C281.786469,464.108948 322.012970,419.173248 362.239502,374.237518 
	C361.957520,373.630157 361.675537,373.022797 361.393555,372.415436 
	C349.131500,375.207703 336.623718,377.209320 324.650482,380.930695 
	C275.892181,396.085205 239.351669,426.166412 216.276367,471.966064 
	C214.184433,476.118103 212.109390,478.925873 207.278030,478.974426 
	C202.667831,479.020782 200.348846,476.385712 198.148590,472.579529 
	C170.615509,424.950836 131.300644,392.224304 76.777603,377.692200 
z"/>
<path fill="#2C4A22" opacity="1.000000" stroke="none" 
	d="
M171.002274,400.998016 
	C132.569992,368.761139 87.939041,353.141144 38.523411,348.620270 
	C38.523411,244.245148 38.523411,139.722076 38.523411,33.786324 
	C49.514900,34.695148 60.549477,34.643261 71.196182,36.649609 
	C126.414742,47.055443 165.309555,79.909950 193.414413,127.099510 
	C194.513550,128.945023 194.768082,131.521072 194.772568,133.757996 
	C194.919113,206.724075 194.984940,279.690308 195.066879,352.656525 
	C195.092133,375.145599 195.129486,397.634705 195.160843,420.123779 
	C195.163040,421.705597 195.161133,423.287445 195.974426,423.428772 
	C187.734894,416.034607 179.495361,408.640442 171.002274,400.998016 
z"/>
<path fill="#2C4A22" opacity="1.000000" stroke="none" 
	d="
M218.509277,297.999634 
	C218.618851,243.195023 218.708679,188.890350 218.903992,134.586090 
	C218.912582,132.198380 219.308701,129.470291 220.494888,127.478851 
	C246.483505,83.847099 282.322632,52.641041 332.344635,39.602112 
	C346.130615,36.008602 360.209198,35.017822 374.791016,35.693230 
	C374.791016,140.359543 374.791016,244.877609 374.791016,349.787628 
	C344.861084,352.012177 316.094604,359.441162 288.772186,372.274780 
	C261.467072,385.100281 237.878220,402.776733 218.509308,427.209656 
	C218.509308,383.601868 218.509308,341.050751 218.509277,297.999634 
M315.908600,285.251831 
	C327.910217,283.767975 339.898529,282.161316 351.920166,280.862732 
	C356.505981,280.367371 359.352661,278.455658 360.208588,273.823944 
	C361.468109,267.008514 357.476532,262.207001 349.849182,261.813599 
	C324.560883,260.509308 300.541351,265.243744 278.329254,277.669617 
	C262.259796,286.659180 248.648178,298.426514 239.357986,314.600769 
	C236.268387,319.979767 237.648071,325.732849 242.249771,328.687073 
	C247.439102,332.018494 253.557663,330.962708 257.034546,325.543701 
	C270.829773,304.042694 291.239716,292.285400 315.908600,285.251831 
M317.971924,177.294968 
	C329.345612,175.920776 340.700317,174.345551 352.102051,173.267929 
	C356.895294,172.814911 359.426575,170.647324 360.238251,166.132355 
	C361.461945,159.325607 357.099823,154.477966 349.052460,154.196564 
	C323.062042,153.287704 298.414398,158.296936 275.846283,171.672531 
	C261.031158,180.453140 248.420517,191.651123 239.607834,206.661423 
	C236.282700,212.324997 237.535049,218.271591 242.246002,221.187881 
	C247.670746,224.545975 253.602966,223.534195 257.083679,218.111801 
	C271.319122,195.935257 292.476379,184.141571 317.971924,177.294968 
z"/>
<path fill="#2D4A23" opacity="1.000000" stroke="none" 
	d="
M77.179565,377.791260 
	C131.300644,392.224304 170.615509,424.950836 198.148590,472.579529 
	C200.348846,476.385712 202.667831,479.020782 207.278030,478.974426 
	C212.109390,478.925873 214.184433,476.118103 216.276367,471.966064 
	C239.351669,426.166412 275.892181,396.085205 324.650482,380.930695 
	C336.623718,377.209320 349.131500,375.207703 361.393555,372.415436 
	C361.675537,373.022797 361.957520,373.630157 362.239502,374.237518 
	C322.012970,419.173248 281.786469,464.108948 241.279907,509.357452 
	C219.971039,495.031769 198.654099,497.061859 176.827438,509.593231 
	C134.968658,464.728851 92.999252,419.745911 51.029846,374.762970 
	C51.157173,374.242371 51.284504,373.721802 51.411835,373.201202 
	C59.867088,374.698212 68.322350,376.195190 77.179565,377.791260 
z"/>
<path fill="#FCFDFC" opacity="1.000000" stroke="none" 
	d="
M315.528198,285.400024 
	C291.239716,292.285400 270.829773,304.042694 257.034546,325.543701 
	C253.557663,330.962708 247.439102,332.018494 242.249771,328.687073 
	C237.648071,325.732849 236.268387,319.979767 239.357986,314.600769 
	C248.648178,298.426514 262.259796,286.659180 278.329254,277.669617 
	C300.541351,265.243744 324.560883,260.509308 349.849182,261.813599 
	C357.476532,262.207001 361.468109,267.008514 360.208588,273.823944 
	C359.352661,278.455658 356.505981,280.367371 351.920166,280.862732 
	C339.898529,282.161316 327.910217,283.767975 315.528198,285.400024 
z"/>
<path fill="#FDFDFC" opacity="1.000000" stroke="none" 
	d="
M317.583008,177.432648 
	C292.476379,184.141571 271.319122,195.935257 257.083679,218.111801 
	C253.602966,223.534195 247.670746,224.545975 242.246002,221.187881 
	C237.535049,218.271591 236.282700,212.324997 239.607834,206.661423 
	C248.420517,191.651123 261.031158,180.453140 275.846283,171.672531 
	C298.414398,158.296936 323.062042,153.287704 349.052460,154.196564 
	C357.099823,154.477966 361.461945,159.325607 360.238251,166.132355 
	C359.426575,170.647324 356.895294,172.814911 352.102051,173.267929 
	C340.700317,174.345551 329.345612,175.920776 317.583008,177.432648 
z"/>
</svg>