<svg width="51" height="74" viewBox="0 0 51 74" fill="none" xmlns="http://www.w3.org/2000/svg">
<path d="M49.5566 46.443L25.27 72.7519L0.5 46.443V0.780301C13.8879 -0.0906157 22.3499 8.80403 24.9075 13.3602C30.9006 2.23183 43.8374 0.175497 49.5566 0.538379V46.443Z" fill="white"/>
<path d="M29.5 66C26.5 63.5 22.9726 64.5702 21 66L3.29943 47.0243C15.0271 47.266 22.3205 56.2289 24.5013 60.6802C24.6224 60.7809 25.0178 60.9516 25.5024 60.7099C30.6393 49.6885 41.6243 46.984 46.4906 47.0243L29.5 66Z" fill="#2B4921"/>
<path d="M2.49959 2.95817C14.0748 2.08975 21.5906 11.0795 23.9016 15.6829L23.9619 56.0886C18.2225 47.3079 7.26229 44.9519 2.49959 44.8715V2.95817Z" fill="#2B4921"/>
<path d="M47.4237 3.09147C35.8486 2.22305 28.3328 11.2128 26.0217 15.8163L25.9615 56.2219C31.7008 47.4412 42.661 45.0853 47.4237 45.0048V3.09147Z" fill="#2B4921"/>
<path d="M31.044 41.1746C34.1763 35.9492 40.9889 34.881 44.0037 35C44.1691 35 44.5 34.8572 44.5 34.2856C44.5 33.7141 43.9118 33.5372 43.6176 33.5202C35.3675 33.1528 30.805 37.8917 29.555 40.3071C29.3344 41.0828 29.8307 41.3788 30.1064 41.4298C30.4594 41.6339 30.8785 41.3447 31.044 41.1746Z" fill="white"/>
<path d="M31.044 27.1746C34.1763 21.9492 40.9889 20.881 44.0037 21C44.1691 21 44.5 20.8572 44.5 20.2856C44.5 19.7141 43.9118 19.5372 43.6176 19.5202C35.3675 19.1528 30.805 23.8917 29.555 26.3071C29.3344 27.0828 29.8307 27.3788 30.1064 27.4298C30.4594 27.6339 30.8785 27.3447 31.044 27.1746Z" fill="#D9D9D9"/>
<path d="M31.044 27.1746C34.1763 21.9492 40.9889 20.881 44.0037 21C44.1691 21 44.5 20.8572 44.5 20.2856C44.5 19.7141 43.9118 19.5372 43.6176 19.5202C35.3675 19.1528 30.805 23.8917 29.555 26.3071C29.3344 27.0828 29.8307 27.3788 30.1064 27.4298C30.4594 27.6339 30.8785 27.3447 31.044 27.1746Z" fill="white"/>
<path d="M49.5566 46.443L25.27 72.7519L0.5 46.443V0.780301C13.8879 -0.0906157 22.3499 8.80403 24.9075 13.3602C30.9006 2.23183 43.8374 0.175497 49.5566 0.538379V46.443Z" stroke="white"/>
<path d="M29.5 66C26.5 63.5 22.9726 64.5702 21 66L3.29943 47.0243C15.0271 47.266 22.3205 56.2289 24.5013 60.6802C24.6224 60.7809 25.0178 60.9516 25.5024 60.7099C30.6393 49.6885 41.6243 46.984 46.4906 47.0243L29.5 66Z" stroke="white"/>
<path d="M2.49959 2.95817C14.0748 2.08975 21.5906 11.0795 23.9016 15.6829L23.9619 56.0886C18.2225 47.3079 7.26229 44.9519 2.49959 44.8715V2.95817Z" stroke="white"/>
<path d="M47.4237 3.09147C35.8486 2.22305 28.3328 11.2128 26.0217 15.8163L25.9615 56.2219C31.7008 47.4412 42.661 45.0853 47.4237 45.0048V3.09147Z" stroke="white"/>
<path d="M31.044 41.1746C34.1763 35.9492 40.9889 34.881 44.0037 35C44.1691 35 44.5 34.8572 44.5 34.2856C44.5 33.7141 43.9118 33.5372 43.6176 33.5202C35.3675 33.1528 30.805 37.8917 29.555 40.3071C29.3344 41.0828 29.8307 41.3788 30.1064 41.4298C30.4594 41.6339 30.8785 41.3447 31.044 41.1746Z" stroke="white"/>
<path d="M31.044 27.1746C34.1763 21.9492 40.9889 20.881 44.0037 21C44.1691 21 44.5 20.8572 44.5 20.2856C44.5 19.7141 43.9118 19.5372 43.6176 19.5202C35.3675 19.1528 30.805 23.8917 29.555 26.3071C29.3344 27.0828 29.8307 27.3788 30.1064 27.4298C30.4594 27.6339 30.8785 27.3447 31.044 27.1746Z" stroke="white"/>
</svg>
